<?xml version="1.0" encoding="UTF-8" standalone="no"?>
<svg
   version="1.1"
   viewBox="0 0 1800 1800"
   id="svg7"
   sodipodi:docname="logo.svg"
   inkscape:version="1.4 (86a8ad7, 2024-10-11)"
   width="1800"
   height="1800"
   xmlns:inkscape="http://www.inkscape.org/namespaces/inkscape"
   xmlns:sodipodi="http://sodipodi.sourceforge.net/DTD/sodipodi-0.dtd"
   xmlns:xlink="http://www.w3.org/1999/xlink"
   xmlns="http://www.w3.org/2000/svg"
   xmlns:svg="http://www.w3.org/2000/svg">
  <sodipodi:namedview
     id="namedview7"
     pagecolor="#ffffff"
     bordercolor="#000000"
     borderopacity="0.25"
     inkscape:showpageshadow="2"
     inkscape:pageopacity="0.0"
     inkscape:pagecheckerboard="true"
     inkscape:deskcolor="#d1d1d1"
     inkscape:zoom="0.38419468"
     inkscape:cx="1388.6189"
     inkscape:cy="797.77263"
     inkscape:window-width="1920"
     inkscape:window-height="1017"
     inkscape:window-x="-8"
     inkscape:window-y="-8"
     inkscape:window-maximized="1"
     inkscape:current-layer="g7" />
  <defs
     id="defs4">
    <style
       id="style1">
      .cls-1 {
        fill: url(#linear-gradient-3);
      }

      .cls-2 {
        fill: url(#linear-gradient-2);
      }

      .cls-3 {
        fill: url(#linear-gradient);
      }

      .text {
        fill: #ffffff;
        font-family: 'Arial', sans-serif;
        font-size: 350px;
        font-weight: bold;
      }
    </style>
    <linearGradient
       id="linear-gradient"
       x1="1192.3"
       y1="413.70001"
       x2="898.59998"
       y2="678.29999"
       gradientUnits="userSpaceOnUse">
      <stop
         offset="0"
         stop-color="#ff156a"
         id="stop1" />
      <stop
         offset="1"
         stop-color="#ff8a15"
         id="stop2" />
    </linearGradient>
    <linearGradient
       id="linear-gradient-2"
       x1="98.099998"
       y1="921.5"
       x2="1173.1"
       y2="630.29999"
       xlink:href="#linear-gradient" />
    <linearGradient
       id="linear-gradient-3"
       x1="878.79999"
       y1="683.79999"
       x2="878.79999"
       y2="683.79999"
       gradientUnits="userSpaceOnUse">
      <stop
         offset="0"
         stop-color="#fff"
         id="stop3" />
      <stop
         offset="1"
         stop-color="#000"
         id="stop4" />
    </linearGradient>
    <linearGradient
       inkscape:collect="always"
       xlink:href="#linear-gradient"
       id="linearGradient1"
       gradientUnits="userSpaceOnUse"
       x1="1192.3"
       y1="413.70001"
       x2="898.59998"
       y2="678.29999" />
  </defs>
  <!-- Generator: Adobe Illustrator 28.6.0, SVG Export Plug-In . SVG Version: 1.2.0 Build 709)  -->
  <g
     transform="translate(100)"
     id="g7">
    <g
       id="Layer_1"
       transform="matrix(1.6368667,0,0,1.5935182,-137.78024,-45.331842)">
      <g
         transform="scale(0.8)"
         id="g6">
        <path
           class="cls-3"
           d="m 950.4,447.1 c -3.2,7.7 -47.7,142.5 -63.7,206.6 -2.8,11.1 8,20.8 18.7,16.8 74.1,-27.4 297.8,-110.2 366.2,-135 8.9,-3.2 12.6,-13.8 7.7,-21.9 -25.2,-41.3 -91.3,-149.8 -91.3,-149.8 -18.5,-30.4 -58.2,-40 -88.5,-21.5 l -136.7,83.3 c -9.4,6.8 -9,13.2 -12.4,21.3 z"
           id="path4"
           style="fill:url(#linearGradient1)" />
        <path
           class="cls-2"
           d="M 1252.8,896.5 1077.2,781.4 h -0.1 c -7.7,-5.1 -17,-7.2 -26.1,-5.7 L 444.1,886.1 c -11.8,1.8 -16.4,-14.8 -5.3,-19.3 L 703.7,760.6 c 9.4,-3.8 12.3,-15.6 5.7,-23.3 l -182,-214.1 c -4.7,-5.5 2.3,-13.2 8.2,-9.1 l 251,171.9 c 8.1,5.5 19.2,1.6 22,-7.8 L 878.1,444 C 886,417.4 890,389.9 890,362.2 V 242.1 c 0,-35.6 -28.8,-64.4 -64.4,-64.4 H 633.3 c -35.6,0 -64.4,28.8 -64.4,64.4 v 169.7 c 0,24.6 -27.4,39.4 -48,25.9 L 373.4,341 c -29.8,-19.5 -69.7,-11.2 -89.2,18.6 L 178.8,520.5 c -19.5,29.8 -11.2,69.7 18.6,89.2 l 181,118.6 c 18.8,12.3 18.7,39.9 -0.2,52 L 201.6,893.8 c -29.9,19.2 -38.6,59.1 -19.4,89 l 104,161.8 c 19.2,29.9 59.1,38.6 89,19.4 l 146,-93.8 c 20.6,-13.3 47.7,1.6 47.7,26.1 V 1259 c 0,35.6 28.8,64.4 64.4,64.4 h 192.3 c 35.6,0 64.4,-28.8 64.4,-64.4 v -158.8 c 0,-24.6 27.4,-39.4 48,-25.9 l 138.8,91 c 29.8,19.5 69.7,11.2 89.2,-18.6 l 105.4,-160.9 c 19.5,-29.8 11.2,-69.7 -18.6,-89.2 z"
           id="path5"
           style="fill:url(#linear-gradient-2)" />
        <path
           class="cls-1"
           d="M 878.8,683.8"
           id="path6"
           style="fill:url(#linear-gradient-3)" />
      </g>
    </g>
  </g>
</svg>
